<svg width="15" height="17" viewBox="0 0 15 17" fill="none" xmlns="http://www.w3.org/2000/svg">
<path d="M11.1243 7.808C13.2523 8.496 14.3163 9.968 14.3163 12.224C14.3163 13.728 13.8283 14.904 12.8523 15.752C11.8763 16.584 10.5403 17 8.84428 17H1.83628V0.199999H8.17228C11.3723 0.199999 12.9723 1.552 12.9723 4.256C12.9723 5.92 12.3563 7.104 11.1243 7.808ZM4.90828 6.8H7.71628C8.46828 6.8 9.02828 6.648 9.39628 6.344C9.76428 6.024 9.94828 5.536 9.94828 4.88C9.94828 4.192 9.76428 3.696 9.39628 3.392C9.02828 3.088 8.46828 2.936 7.71628 2.936H4.90828V6.8ZM8.38828 14.264C9.28428 14.264 9.96428 14.088 10.4283 13.736C10.9083 13.368 11.1483 12.752 11.1483 11.888C11.1483 11.04 10.9003 10.44 10.4043 10.088C9.92428 9.72 9.25228 9.536 8.38828 9.536H4.90828V14.264H8.38828Z" fill="#565656"/>
</svg>
