<svg width="9" height="6" viewBox="0 0 9 6" fill="none" xmlns="http://www.w3.org/2000/svg">
<path d="M8.47477 3.66C8.47477 4.71333 7.88143 5.24 6.69477 5.24C5.5081 5.24 4.91477 4.64 4.91477 3.44C4.91477 2.22667 5.75477 1.09333 7.43477 0.04L8.61477 0.479999L7.37477 2.1L7.41477 2.2C8.12143 2.34667 8.47477 2.83333 8.47477 3.66ZM4.47477 3.66C4.47477 4.71333 3.88143 5.24 2.69477 5.24C1.5081 5.24 0.914766 4.64 0.914766 3.44C0.914766 2.22667 1.75477 1.09333 3.43477 0.04L4.61477 0.479999L3.37477 2.1L3.41477 2.2C4.12143 2.34667 4.47477 2.83333 4.47477 3.66Z" fill="black"/>
</svg>
