<svg width="11" height="19" viewBox="0 0 11 19" fill="none" xmlns="http://www.w3.org/2000/svg">
<line x1="1" y1="17.3214" x2="10" y2="17.3214" stroke="#565656" stroke-width="2"/>
<path d="M10.1191 0.924103H8.37109L8.3418 10.553C8.32878 10.9762 8.26042 11.3831 8.13672 11.7737C8.01302 12.1643 7.83398 12.5094 7.59961 12.8089C7.35872 13.1149 7.0625 13.359 6.71094 13.5413C6.35938 13.7171 5.95247 13.805 5.49023 13.805C5.02799 13.805 4.61784 13.7138 4.25977 13.5315C3.9082 13.3492 3.61523 13.1083 3.38086 12.8089C3.13997 12.5094 2.95443 12.1643 2.82422 11.7737C2.70052 11.3831 2.63542 10.9762 2.62891 10.553L2.58984 0.924103H0.871094L0.851562 10.553C0.858073 11.2171 0.97526 11.8421 1.20312 12.428C1.43099 13.0074 1.74674 13.512 2.15039 13.9417C2.55404 14.3779 3.03906 14.7197 3.60547 14.9671C4.17188 15.2145 4.80013 15.3382 5.49023 15.3382C6.16732 15.3382 6.78906 15.2145 7.35547 14.9671C7.92188 14.7132 8.41016 14.3681 8.82031 13.9319C9.23047 13.5022 9.55273 12.9977 9.78711 12.4182C10.0215 11.8388 10.1387 11.2171 10.1387 10.553L10.1191 0.924103Z" fill="#565656"/>
</svg>
